<svg width="149" height="50" viewBox="0 0 149 50" fill="none" xmlns="http://www.w3.org/2000/svg">
<circle cx="25" cy="25" r="25" fill="#1944DF"/>
<path d="M13.0176 27.1011C13.0621 26.6877 13.103 26.2751 13.1439 25.8635C13.4406 22.8774 13.7476 19.7896 15.4333 17.0434C17.7942 13.1968 22.0917 10.9865 27.3363 10.8793C27.4312 10.8774 27.4446 10.741 27.3515 10.7226C24.0837 10.075 20.8837 10.4141 18.303 11.7258C13.5717 14.1304 12.2429 18.4145 11.1991 22.9655C11.1484 23.1876 11.0978 23.4139 11.0466 23.6433C10.5583 25.8315 10.0106 28.2871 8.47132 29.9973C9.39895 30.2239 11.3092 30.3801 12.8673 28.4999L13.0176 27.1011Z" fill="white"/>
<path d="M41.4857 24.6243L40.1788 26.0873C39.7124 26.6091 38.922 26.7099 38.3398 26.3219L35.6419 24.5233C35.5345 24.4515 35.3983 24.439 35.2793 24.49C35.2081 24.5203 28.4712 27.3477 25.9669 23.7338C25.7777 23.4609 25.7135 23.1184 25.7831 22.7938C25.9808 21.8711 26.2805 21.2291 26.2908 21.2072C26.2908 21.2072 26.2909 21.207 26.2909 21.2068C25.5196 21.9609 25.006 22.9502 24.8839 24.022C24.792 24.8293 24.8775 25.81 25.3944 26.8782C26.2196 28.5838 27.9299 29.7392 30.4778 30.3124C36.2631 31.6138 38.0239 32.5259 38.2378 36.0924C33.0266 34.8246 28.9762 35.0381 26.1933 36.7288C24.4858 37.7665 23.8317 38.8674 23.526 39.5968C20.0244 36.438 17.4612 32.2379 17.2632 27.1547C17.0674 22.1264 18.137 18.6038 21.2306 15.4734C22.1164 14.577 23.2638 13.805 24.4252 13.1802C23.9166 13.2628 23.1696 13.578 22.3553 14.0621C20.4856 15.1733 18.997 16.831 18.0458 18.787C16.8151 21.3178 16.3484 24.4338 16.4982 27.1548C16.6393 29.7164 17.0928 32.2251 18.1864 34.4876C15.1378 37.6313 11.8023 36.184 10.6616 35.5317C12.8753 33.3454 13.5008 29.7525 13.7779 27.1836C13.8228 26.7682 13.8639 26.3534 13.905 25.9398C14.2065 22.906 14.4913 20.0406 16.0851 17.4441C18.0507 14.2419 21.4638 12.2431 25.6738 11.7565C25.6738 11.7565 26.8775 11.628 28.4466 11.6811C29.5461 11.418 30.7195 11.2321 31.9708 11.1301C32.2504 11.1073 32.4407 11.4096 32.2976 11.6509L30.2555 15.0928C30.5582 15.0668 30.8402 14.928 31.0457 14.7042L31.2078 14.5276C31.3133 14.4126 31.4922 14.4055 31.6067 14.5115L41.5009 23.6865C41.5566 23.7381 41.5229 23.8308 41.4471 23.8347C40.837 23.8664 39.7843 23.8139 39.0193 23.2019C39.1173 23.4883 39.2944 23.7437 39.5374 23.9242C40.0024 24.2696 40.6439 24.4561 41.1711 24.4561C41.2535 24.4561 41.3319 24.4543 41.4054 24.4512C41.4968 24.4475 41.5468 24.556 41.4857 24.6243ZM32.431 18.3666L29.6126 16.4289C29.5063 16.3558 29.3584 16.4107 29.3293 16.5363C29.2412 16.917 29.2057 17.6513 30.0339 18.1309C30.853 18.6055 31.8527 18.6244 32.369 18.5946C32.4876 18.5879 32.5289 18.4339 32.431 18.3666Z" fill="white"/>
<path d="M65.74 36V16.5H79.06V19.59H69.07V25.29H77.89V28.05H69.07V36H65.74ZM81.3545 21H84.5045V36H81.3545V21ZM82.9445 19.29C81.7145 19.29 80.8445 18.36 80.8445 17.1C80.8445 15.84 81.7145 14.94 82.9445 14.94C84.1745 14.94 85.0445 15.84 85.0445 17.1C85.0445 18.36 84.1745 19.29 82.9445 19.29ZM87.9463 36V21H90.4663L90.9463 23.46C91.7563 21.78 93.6463 20.64 95.8063 20.64C99.1063 20.64 101.446 23.25 101.446 26.82V36H98.2963V27.33C98.2963 25.23 96.9163 23.73 94.9063 23.73C92.7163 23.73 91.0963 25.44 91.0963 27.84V36H87.9463ZM109.905 36.36C106.215 36.36 103.455 34.35 103.215 31.56L106.815 30.72C106.905 32.34 108.285 33.54 110.115 33.54C111.525 33.54 112.575 32.79 112.575 31.71C112.575 28.62 103.935 29.79 103.935 24.84C103.935 22.35 106.245 20.64 109.515 20.64C112.875 20.64 115.305 22.38 115.545 24.81L112.125 25.59C112.095 24.27 110.985 23.37 109.425 23.37C108.105 23.37 107.205 24.03 107.205 24.99C107.205 27.99 115.965 26.76 115.965 31.83C115.965 34.47 113.445 36.36 109.905 36.36ZM125.947 36.03C122.827 36.99 119.167 36.03 119.167 32.22V23.91H116.917V21H117.787C118.717 21 119.317 20.31 119.317 19.26V17.01H122.317V21H125.767V23.91H122.317V31.5C122.317 33.24 123.967 33.72 125.587 33.12L125.947 36.03ZM132.369 36.36C129.429 36.36 127.449 34.59 127.449 31.98C127.449 29.97 129.009 28.29 131.379 27.84L136.119 26.91C136.569 26.85 136.869 26.52 136.869 26.13C136.869 24.6 135.759 23.49 134.199 23.49C132.579 23.49 131.319 24.63 131.199 26.34L127.959 25.56C128.439 22.68 130.959 20.64 134.049 20.64C137.529 20.64 140.019 22.98 140.019 26.22V33L140.079 36H137.589L137.049 33.96C136.119 35.43 134.409 36.36 132.369 36.36ZM130.839 31.56C130.839 32.64 131.709 33.36 133.149 33.36C135.249 33.36 136.869 31.83 136.869 29.58V28.89C136.569 28.95 136.239 29.04 135.909 29.1L132.639 29.7C131.529 29.91 130.839 30.63 130.839 31.56Z" fill="white"/>
<path d="M144.64 36.24C143.38 36.24 142.45 35.28 142.45 33.99C142.45 32.67 143.38 31.74 144.64 31.74C145.93 31.74 146.83 32.67 146.83 33.99C146.83 35.28 145.93 36.24 144.64 36.24Z" fill="#1944DF"/>
</svg>
